ISO-10303-21;
HEADER;
FILE_DESCRIPTION((''),'2;1');
FILE_NAME('51513031200FA_','2016-03-03T',('patelv'),(''),
'PRO/ENGINEER BY PARAMETRIC TECHNOLOGY CORPORATION, 2014000',
'PRO/ENGINEER BY PARAMETRIC TECHNOLOGY CORPORATION, 2014000','');
FILE_SCHEMA(('CONFIG_CONTROL_DESIGN'));
ENDSEC;
DATA;
#1=CARTESIAN_POINT('',(0.E0,0.E0,0.E0));
#2=DIRECTION('',(0.E0,0.E0,1.E0));
#3=DIRECTION('',(0.E0,-1.E0,0.E0));
#4=AXIS2_PLACEMENT_3D('',#1,#2,#3);
#6=CARTESIAN_POINT('',(0.E0,0.E0,0.E0));
#7=DIRECTION('',(0.E0,0.E0,1.E0));
#8=DIRECTION('',(0.E0,1.E0,0.E0));
#9=AXIS2_PLACEMENT_3D('',#6,#7,#8);
#11=CARTESIAN_POINT('',(0.E0,0.E0,0.E0));
#12=DIRECTION('',(0.E0,0.E0,-1.E0));
#13=DIRECTION('',(-1.E0,0.E0,0.E0));
#14=AXIS2_PLACEMENT_3D('',#11,#12,#13);
#16=CARTESIAN_POINT('',(0.E0,0.E0,0.E0));
#17=DIRECTION('',(0.E0,0.E0,-1.E0));
#18=DIRECTION('',(1.E0,0.E0,0.E0));
#19=AXIS2_PLACEMENT_3D('',#16,#17,#18);
#21=DIRECTION('',(0.E0,3.489949670242E-2,-9.993908270191E-1));
#22=VECTOR('',#21,1.500914316448E-2);
#23=CARTESIAN_POINT('',(0.E0,6.447618845762E-2,1.5E-2));
#24=LINE('',#23,#22);
#25=DIRECTION('',(0.E0,-3.489949670242E-2,-9.993908270191E-1));
#26=VECTOR('',#25,1.500914316448E-2);
#27=CARTESIAN_POINT('',(0.E0,-6.447618845762E-2,1.5E-2));
#28=LINE('',#27,#26);
#29=CARTESIAN_POINT('',(0.E0,0.E0,1.274844188516E-2));
#30=DIRECTION('',(1.E0,0.E0,0.E0));
#31=DIRECTION('',(0.E0,0.E0,1.E0));
#32=AXIS2_PLACEMENT_3D('',#29,#30,#31);
#34=CARTESIAN_POINT('',(0.E0,0.E0,1.5E-2));
#35=DIRECTION('',(0.E0,0.E0,-1.E0));
#36=DIRECTION('',(0.E0,-1.E0,0.E0));
#37=AXIS2_PLACEMENT_3D('',#34,#35,#36);
#39=CARTESIAN_POINT('',(0.E0,0.E0,1.274844188516E-2));
#40=DIRECTION('',(-1.E0,0.E0,0.E0));
#41=DIRECTION('',(0.E0,0.E0,1.E0));
#42=AXIS2_PLACEMENT_3D('',#39,#40,#41);
#44=CARTESIAN_POINT('',(0.E0,0.E0,1.5E-2));
#45=DIRECTION('',(0.E0,0.E0,-1.E0));
#46=DIRECTION('',(0.E0,1.E0,0.E0));
#47=AXIS2_PLACEMENT_3D('',#44,#45,#46);
#49=DIRECTION('',(1.434926219912E-1,0.E0,-9.896513868197E-1));
#50=VECTOR('',#49,1.010456826836E-1);
#51=CARTESIAN_POINT('',(-6.105824911683E-2,0.E0,0.E0));
#52=LINE('',#51,#50);
#53=DIRECTION('',(-1.434926219912E-1,0.E0,-9.896513868197E-1));
#54=VECTOR('',#53,1.010456826836E-1);
#55=CARTESIAN_POINT('',(6.105824911683E-2,0.E0,0.E0));
#56=LINE('',#55,#54);
#57=CARTESIAN_POINT('',(0.E0,0.E0,-1.E-1));
#58=DIRECTION('',(0.E0,0.E0,-1.E0));
#59=DIRECTION('',(-1.E0,0.E0,0.E0));
#60=AXIS2_PLACEMENT_3D('',#57,#58,#59);
#62=CARTESIAN_POINT('',(0.E0,0.E0,-1.E-1));
#63=DIRECTION('',(0.E0,0.E0,-1.E0));
#64=DIRECTION('',(1.E0,0.E0,0.E0));
#65=AXIS2_PLACEMENT_3D('',#62,#63,#64);
#67=CARTESIAN_POINT('',(0.E0,0.E0,-1.E-1));
#68=DIRECTION('',(0.E0,0.E0,1.E0));
#69=DIRECTION('',(0.E0,-1.E0,0.E0));
#70=AXIS2_PLACEMENT_3D('',#67,#68,#69);
#72=CARTESIAN_POINT('',(0.E0,0.E0,-1.25E-1));
#73=DIRECTION('',(0.E0,0.E0,-1.E0));
#74=DIRECTION('',(0.E0,1.E0,0.E0));
#75=AXIS2_PLACEMENT_3D('',#72,#73,#74);
#77=CARTESIAN_POINT('',(0.E0,0.E0,-1.E-1));
#78=DIRECTION('',(0.E0,0.E0,1.E0));
#79=DIRECTION('',(0.E0,1.E0,0.E0));
#80=AXIS2_PLACEMENT_3D('',#77,#78,#79);
#82=DIRECTION('',(0.E0,0.E0,1.E0));
#83=VECTOR('',#82,2.5E-2);
#84=CARTESIAN_POINT('',(0.E0,-4.67E-2,-1.25E-1));
#85=LINE('',#84,#83);
#86=CARTESIAN_POINT('',(0.E0,0.E0,-1.25E-1));
#87=DIRECTION('',(0.E0,0.E0,1.E0));
#88=DIRECTION('',(0.E0,1.E0,0.E0));
#89=AXIS2_PLACEMENT_3D('',#86,#87,#88);
#91=DIRECTION('',(0.E0,0.E0,1.E0));
#92=VECTOR('',#91,2.5E-2);
#93=CARTESIAN_POINT('',(0.E0,4.67E-2,-1.25E-1));
#94=LINE('',#93,#92);
#95=CARTESIAN_POINT('',(0.E0,-6.5E-2,0.E0));
#96=CARTESIAN_POINT('',(0.E0,6.5E-2,0.E0));
#97=VERTEX_POINT('',#95);
#98=VERTEX_POINT('',#96);
#99=CARTESIAN_POINT('',(0.E0,6.447618845762E-2,1.5E-2));
#100=VERTEX_POINT('',#99);
#101=CARTESIAN_POINT('',(0.E0,-6.447618845762E-2,1.5E-2));
#102=VERTEX_POINT('',#101);
#103=CARTESIAN_POINT('',(0.E0,0.E0,7.726393143587E-2));
#104=VERTEX_POINT('',#103);
#105=CARTESIAN_POINT('',(0.E0,4.67E-2,-1.25E-1));
#106=CARTESIAN_POINT('',(0.E0,-4.67E-2,-1.25E-1));
#107=VERTEX_POINT('',#105);
#108=VERTEX_POINT('',#106);
#109=CARTESIAN_POINT('',(0.E0,4.67E-2,-1.E-1));
#110=VERTEX_POINT('',#109);
#111=CARTESIAN_POINT('',(0.E0,-4.67E-2,-1.E-1));
#112=VERTEX_POINT('',#111);
#113=CARTESIAN_POINT('',(-6.105824911683E-2,0.E0,0.E0));
#114=CARTESIAN_POINT('',(6.105824911683E-2,0.E0,0.E0));
#115=VERTEX_POINT('',#113);
#116=VERTEX_POINT('',#114);
#117=CARTESIAN_POINT('',(-4.655893916766E-2,0.E0,-1.E-1));
#118=VERTEX_POINT('',#117);
#119=CARTESIAN_POINT('',(4.655893916766E-2,0.E0,-1.E-1));
#120=VERTEX_POINT('',#119);
#121=CARTESIAN_POINT('',(0.E0,0.E0,0.E0));
#122=DIRECTION('',(0.E0,0.E0,1.E0));
#123=DIRECTION('',(0.E0,1.E0,0.E0));
#124=AXIS2_PLACEMENT_3D('',#121,#122,#123);
#125=PLANE('',#124);
#127=ORIENTED_EDGE('',*,*,#126,.T.);
#129=ORIENTED_EDGE('',*,*,#128,.T.);
#130=EDGE_LOOP('',(#127,#129));
#131=FACE_OUTER_BOUND('',#130,.F.);
#133=ORIENTED_EDGE('',*,*,#132,.T.);
#135=ORIENTED_EDGE('',*,*,#134,.T.);
#136=EDGE_LOOP('',(#133,#135));
#137=FACE_BOUND('',#136,.F.);
#138=ADVANCED_FACE('',(#131,#137),#125,.F.);
#139=CARTESIAN_POINT('',(0.E0,0.E0,7.499999999998E-3));
#140=DIRECTION('',(0.E0,0.E0,-1.E0));
#141=DIRECTION('',(0.E0,-1.E0,0.E0));
#142=AXIS2_PLACEMENT_3D('',#139,#140,#141);
#143=CONICAL_SURFACE('',#142,6.473809422881E-2,2.E0);
#145=ORIENTED_EDGE('',*,*,#144,.T.);
#146=ORIENTED_EDGE('',*,*,#126,.F.);
#148=ORIENTED_EDGE('',*,*,#147,.F.);
#150=ORIENTED_EDGE('',*,*,#149,.F.);
#151=EDGE_LOOP('',(#145,#146,#148,#150));
#152=FACE_OUTER_BOUND('',#151,.F.);
#153=ADVANCED_FACE('',(#152),#143,.T.);
#154=CARTESIAN_POINT('',(0.E0,0.E0,7.499999999998E-3));
#155=DIRECTION('',(0.E0,0.E0,-1.E0));
#156=DIRECTION('',(0.E0,-1.E0,0.E0));
#157=AXIS2_PLACEMENT_3D('',#154,#155,#156);
#158=CONICAL_SURFACE('',#157,6.473809422881E-2,2.E0);
#159=ORIENTED_EDGE('',*,*,#144,.F.);
#161=ORIENTED_EDGE('',*,*,#160,.F.);
#162=ORIENTED_EDGE('',*,*,#147,.T.);
#163=ORIENTED_EDGE('',*,*,#128,.F.);
#164=EDGE_LOOP('',(#159,#161,#162,#163));
#165=FACE_OUTER_BOUND('',#164,.F.);
#166=ADVANCED_FACE('',(#165),#158,.T.);
#167=CARTESIAN_POINT('',(0.E0,0.E0,1.274844188516E-2));
#168=DIRECTION('',(0.E0,0.E0,1.E0));
#169=DIRECTION('',(0.E0,1.E0,0.E0));
#170=AXIS2_PLACEMENT_3D('',#167,#168,#169);
#171=SPHERICAL_SURFACE('',#170,6.451548955071E-2);
#173=ORIENTED_EDGE('',*,*,#172,.F.);
#175=ORIENTED_EDGE('',*,*,#174,.T.);
#176=ORIENTED_EDGE('',*,*,#160,.T.);
#177=EDGE_LOOP('',(#173,#175,#176));
#178=FACE_OUTER_BOUND('',#177,.F.);
#179=ADVANCED_FACE('',(#178),#171,.T.);
#180=CARTESIAN_POINT('',(0.E0,0.E0,1.274844188516E-2));
#181=DIRECTION('',(0.E0,0.E0,1.E0));
#182=DIRECTION('',(0.E0,1.E0,0.E0));
#183=AXIS2_PLACEMENT_3D('',#180,#181,#182);
#184=SPHERICAL_SURFACE('',#183,6.451548955071E-2);
#185=ORIENTED_EDGE('',*,*,#172,.T.);
#186=ORIENTED_EDGE('',*,*,#149,.T.);
#187=ORIENTED_EDGE('',*,*,#174,.F.);
#188=EDGE_LOOP('',(#185,#186,#187));
#189=FACE_OUTER_BOUND('',#188,.F.);
#190=ADVANCED_FACE('',(#189),#184,.T.);
#191=CARTESIAN_POINT('',(0.E0,0.E0,-5.E-2));
#192=DIRECTION('',(0.E0,0.E0,1.E0));
#193=DIRECTION('',(1.E0,0.E0,0.E0));
#194=AXIS2_PLACEMENT_3D('',#191,#192,#193);
#195=CONICAL_SURFACE('',#194,5.380859414224E-2,8.25E0);
#196=ORIENTED_EDGE('',*,*,#132,.F.);
#198=ORIENTED_EDGE('',*,*,#197,.T.);
#200=ORIENTED_EDGE('',*,*,#199,.T.);
#202=ORIENTED_EDGE('',*,*,#201,.F.);
#203=EDGE_LOOP('',(#196,#198,#200,#202));
#204=FACE_OUTER_BOUND('',#203,.F.);
#205=ADVANCED_FACE('',(#204),#195,.T.);
#206=CARTESIAN_POINT('',(0.E0,0.E0,-5.E-2));
#207=DIRECTION('',(0.E0,0.E0,1.E0));
#208=DIRECTION('',(1.E0,0.E0,0.E0));
#209=AXIS2_PLACEMENT_3D('',#206,#207,#208);
#210=CONICAL_SURFACE('',#209,5.380859414224E-2,8.25E0);
#211=ORIENTED_EDGE('',*,*,#134,.F.);
#212=ORIENTED_EDGE('',*,*,#201,.T.);
#214=ORIENTED_EDGE('',*,*,#213,.T.);
#215=ORIENTED_EDGE('',*,*,#197,.F.);
#216=EDGE_LOOP('',(#211,#212,#214,#215));
#217=FACE_OUTER_BOUND('',#216,.F.);
#218=ADVANCED_FACE('',(#217),#210,.T.);
#219=CARTESIAN_POINT('',(0.E0,0.E0,-1.E-1));
#220=DIRECTION('',(0.E0,0.E0,-1.E0));
#221=DIRECTION('',(-1.E0,0.E0,0.E0));
#222=AXIS2_PLACEMENT_3D('',#219,#220,#221);
#223=PLANE('',#222);
#225=ORIENTED_EDGE('',*,*,#224,.F.);
#227=ORIENTED_EDGE('',*,*,#226,.F.);
#228=EDGE_LOOP('',(#225,#227));
#229=FACE_OUTER_BOUND('',#228,.F.);
#230=ORIENTED_EDGE('',*,*,#199,.F.);
#231=ORIENTED_EDGE('',*,*,#213,.F.);
#232=EDGE_LOOP('',(#230,#231));
#233=FACE_BOUND('',#232,.F.);
#234=ADVANCED_FACE('',(#229,#233),#223,.F.);
#235=CARTESIAN_POINT('',(0.E0,0.E0,6.25E-3));
#236=DIRECTION('',(0.E0,0.E0,-1.E0));
#237=DIRECTION('',(0.E0,-1.E0,0.E0));
#238=AXIS2_PLACEMENT_3D('',#235,#236,#237);
#239=CYLINDRICAL_SURFACE('',#238,4.67E-2);
#240=ORIENTED_EDGE('',*,*,#224,.T.);
#242=ORIENTED_EDGE('',*,*,#241,.F.);
#244=ORIENTED_EDGE('',*,*,#243,.T.);
#246=ORIENTED_EDGE('',*,*,#245,.T.);
#247=EDGE_LOOP('',(#240,#242,#244,#246));
#248=FACE_OUTER_BOUND('',#247,.F.);
#249=ADVANCED_FACE('',(#248),#239,.T.);
#250=CARTESIAN_POINT('',(0.E0,0.E0,6.25E-3));
#251=DIRECTION('',(0.E0,0.E0,-1.E0));
#252=DIRECTION('',(0.E0,-1.E0,0.E0));
#253=AXIS2_PLACEMENT_3D('',#250,#251,#252);
#254=CYLINDRICAL_SURFACE('',#253,4.67E-2);
#255=ORIENTED_EDGE('',*,*,#226,.T.);
#256=ORIENTED_EDGE('',*,*,#245,.F.);
#258=ORIENTED_EDGE('',*,*,#257,.F.);
#259=ORIENTED_EDGE('',*,*,#241,.T.);
#260=EDGE_LOOP('',(#255,#256,#258,#259));
#261=FACE_OUTER_BOUND('',#260,.F.);
#262=ADVANCED_FACE('',(#261),#254,.T.);
#263=CARTESIAN_POINT('',(0.E0,0.E0,-1.25E-1));
#264=DIRECTION('',(0.E0,0.E0,-1.E0));
#265=DIRECTION('',(0.E0,-1.E0,0.E0));
#266=AXIS2_PLACEMENT_3D('',#263,#264,#265);
#267=PLANE('',#266);
#268=ORIENTED_EDGE('',*,*,#257,.T.);
#269=ORIENTED_EDGE('',*,*,#243,.F.);
#270=EDGE_LOOP('',(#268,#269));
#271=FACE_OUTER_BOUND('',#270,.F.);
#272=ADVANCED_FACE('',(#271),#267,.T.);
#273=CLOSED_SHELL('',(#138,#153,#166,#179,#190,#205,#218,#234,#249,#262,#272));
#274=MANIFOLD_SOLID_BREP('',#273);
#275=DIMENSIONAL_EXPONENTS(1.E0,0.E0,0.E0,0.E0,0.E0,0.E0,0.E0);
#277=LENGTH_MEASURE_WITH_UNIT(LENGTH_MEASURE(2.54E1),#276);
#278=(CONVERSION_BASED_UNIT('INCH',#277)LENGTH_UNIT()NAMED_UNIT(#275));
#279=DIMENSIONAL_EXPONENTS(0.E0,0.E0,0.E0,0.E0,0.E0,0.E0,0.E0);
#281=PLANE_ANGLE_MEASURE_WITH_UNIT(PLANE_ANGLE_MEASURE(1.745329251994E-2),#280);
#282=(CONVERSION_BASED_UNIT('DEGREE',#281)NAMED_UNIT(*)PLANE_ANGLE_UNIT());
#284=UNCERTAINTY_MEASURE_WITH_UNIT(LENGTH_MEASURE(6.058428516101E-5),#278,
'closure',
'Maximum model space distance between geometric entities at asserted connectivities');
#285=(GEOMETRIC_REPRESENTATION_CONTEXT(3)GLOBAL_UNCERTAINTY_ASSIGNED_CONTEXT((
#284))GLOBAL_UNIT_ASSIGNED_CONTEXT((#278,#282,#283))REPRESENTATION_CONTEXT
('ID1','3'));
#287=APPLICATION_CONTEXT(
'CONFIGURATION CONTROLLED 3D DESIGNS OF MECHANICAL PARTS AND ASSEMBLIES');
#288=APPLICATION_PROTOCOL_DEFINITION('international standard',
'config_control_design',1994,#287);
#289=DESIGN_CONTEXT('',#287,'design');
#290=MECHANICAL_CONTEXT('',#287,'mechanical');
#291=PRODUCT('51513031200FA_','51513031200FA_','NOT SPECIFIED',(#290));
#292=PRODUCT_DEFINITION_FORMATION_WITH_SPECIFIED_SOURCE('1','LAST_VERSION',#291,
.MADE.);
#296=PRODUCT_CATEGORY('part','');
#297=PRODUCT_RELATED_PRODUCT_CATEGORY('detail','',(#291));
#298=PRODUCT_CATEGORY_RELATIONSHIP('','',#296,#297);
#299=SECURITY_CLASSIFICATION_LEVEL('unclassified');
#300=SECURITY_CLASSIFICATION('','',#299);
#301=CC_DESIGN_SECURITY_CLASSIFICATION(#300,(#292));
#302=APPROVAL_STATUS('approved');
#303=APPROVAL(#302,'');
#304=CC_DESIGN_APPROVAL(#303,(#300,#292,#293));
#305=CALENDAR_DATE(116,3,3);
#306=COORDINATED_UNIVERSAL_TIME_OFFSET(5,0,.BEHIND.);
#307=LOCAL_TIME(15,35,2.3E1,#306);
#308=DATE_AND_TIME(#305,#307);
#309=APPROVAL_DATE_TIME(#308,#303);
#310=DATE_TIME_ROLE('creation_date');
#311=CC_DESIGN_DATE_AND_TIME_ASSIGNMENT(#308,#310,(#293));
#312=DATE_TIME_ROLE('classification_date');
#313=CC_DESIGN_DATE_AND_TIME_ASSIGNMENT(#308,#312,(#300));
#314=PERSON('UNSPECIFIED','UNSPECIFIED',$,$,$,$);
#315=ORGANIZATION('UNSPECIFIED','UNSPECIFIED','UNSPECIFIED');
#316=PERSON_AND_ORGANIZATION(#314,#315);
#317=APPROVAL_ROLE('approver');
#318=APPROVAL_PERSON_ORGANIZATION(#316,#303,#317);
#319=PERSON_AND_ORGANIZATION_ROLE('creator');
#320=CC_DESIGN_PERSON_AND_ORGANIZATION_ASSIGNMENT(#316,#319,(#292,#293));
#321=PERSON_AND_ORGANIZATION_ROLE('design_supplier');
#322=CC_DESIGN_PERSON_AND_ORGANIZATION_ASSIGNMENT(#316,#321,(#292));
#323=PERSON_AND_ORGANIZATION_ROLE('classification_officer');
#324=CC_DESIGN_PERSON_AND_ORGANIZATION_ASSIGNMENT(#316,#323,(#300));
#325=PERSON_AND_ORGANIZATION_ROLE('design_owner');
#326=CC_DESIGN_PERSON_AND_ORGANIZATION_ASSIGNMENT(#316,#325,(#291));
#5=CIRCLE('',#4,6.5E-2);
#10=CIRCLE('',#9,6.5E-2);
#15=CIRCLE('',#14,6.105824911683E-2);
#20=CIRCLE('',#19,6.105824911683E-2);
#33=CIRCLE('',#32,6.451548955071E-2);
#38=CIRCLE('',#37,6.447618845763E-2);
#43=CIRCLE('',#42,6.451548955071E-2);
#48=CIRCLE('',#47,6.447618845763E-2);
#61=CIRCLE('',#60,4.655893916766E-2);
#66=CIRCLE('',#65,4.655893916766E-2);
#71=CIRCLE('',#70,4.67E-2);
#76=CIRCLE('',#75,4.67E-2);
#81=CIRCLE('',#80,4.67E-2);
#90=CIRCLE('',#89,4.67E-2);
#126=EDGE_CURVE('',#97,#98,#5,.T.);
#128=EDGE_CURVE('',#98,#97,#10,.T.);
#132=EDGE_CURVE('',#115,#116,#15,.T.);
#134=EDGE_CURVE('',#116,#115,#20,.T.);
#144=EDGE_CURVE('',#100,#98,#24,.T.);
#147=EDGE_CURVE('',#102,#97,#28,.T.);
#149=EDGE_CURVE('',#100,#102,#48,.T.);
#160=EDGE_CURVE('',#102,#100,#38,.T.);
#172=EDGE_CURVE('',#104,#100,#43,.T.);
#174=EDGE_CURVE('',#104,#102,#33,.T.);
#197=EDGE_CURVE('',#115,#118,#52,.T.);
#199=EDGE_CURVE('',#118,#120,#61,.T.);
#201=EDGE_CURVE('',#116,#120,#56,.T.);
#213=EDGE_CURVE('',#120,#118,#66,.T.);
#224=EDGE_CURVE('',#112,#110,#71,.T.);
#226=EDGE_CURVE('',#110,#112,#81,.T.);
#241=EDGE_CURVE('',#107,#110,#94,.T.);
#243=EDGE_CURVE('',#107,#108,#76,.T.);
#245=EDGE_CURVE('',#108,#112,#85,.T.);
#257=EDGE_CURVE('',#107,#108,#90,.T.);
#276=(LENGTH_UNIT()NAMED_UNIT(*)SI_UNIT(.MILLI.,.METRE.));
#280=(NAMED_UNIT(*)PLANE_ANGLE_UNIT()SI_UNIT($,.RADIAN.));
#283=(NAMED_UNIT(*)SI_UNIT($,.STERADIAN.)SOLID_ANGLE_UNIT());
#286=ADVANCED_BREP_SHAPE_REPRESENTATION('',(#274),#285);
#293=PRODUCT_DEFINITION('design','',#292,#289);
#294=PRODUCT_DEFINITION_SHAPE('','SHAPE FOR 51513031200FA_.',#293);
#295=SHAPE_DEFINITION_REPRESENTATION(#294,#286);
ENDSEC;
END-ISO-10303-21;
